<mxfile host="app.diagrams.net" modified="2022-12-09T12:26:26.359Z" agent="5.0 (Windows NT 10.0; Win64; x64) AppleWebKit/537.36 (KHTML, like Gecko) Chrome/108.0.0.0 Safari/537.36" etag="QGEcROMGlhp51KKKbNxK" version="20.6.0" type="github">
  <diagram id="9SRcjayrZ9UIav_CQgw6" name="Message Packer Job">
    <mxGraphModel dx="1316" dy="802" grid="1" gridSize="10" guides="1" tooltips="1" connect="1" arrows="1" fold="1" page="1" pageScale="1" pageWidth="1100" pageHeight="850" math="0" shadow="0">
      <root>
        <mxCell id="0" />
        <mxCell id="1" parent="0" />
        <mxCell id="cpNMHRpJZLc-2DXV02bt-3" style="edgeStyle=orthogonalEdgeStyle;rounded=1;orthogonalLoop=1;jettySize=auto;html=1;exitX=1;exitY=0.5;exitDx=0;exitDy=0;exitPerimeter=0;entryX=0;entryY=0.5;entryDx=0;entryDy=0;startArrow=none;startFill=0;" parent="1" source="cpNMHRpJZLc-2DXV02bt-4" target="cpNMHRpJZLc-2DXV02bt-7" edge="1">
          <mxGeometry relative="1" as="geometry" />
        </mxCell>
        <mxCell id="cpNMHRpJZLc-2DXV02bt-4" value="every minute" style="points=[[0.25,0,0],[0.5,0,0],[0.75,0,0],[1,0.25,0],[1,0.5,0],[1,0.75,0],[0.75,1,0],[0.5,1,0],[0.25,1,0],[0,0.75,0],[0,0.5,0],[0,0.25,0]];shape=mxgraph.bpmn.task;whiteSpace=wrap;rectStyle=rounded;size=10;taskMarker=abstract;isLoopStandard=1;" parent="1" vertex="1">
          <mxGeometry x="190" y="42" width="120" height="45" as="geometry" />
        </mxCell>
        <mxCell id="cpNMHRpJZLc-2DXV02bt-5" style="edgeStyle=orthogonalEdgeStyle;rounded=1;orthogonalLoop=1;jettySize=auto;html=1;exitX=1;exitY=0.5;exitDx=0;exitDy=0;entryX=0;entryY=0.5;entryDx=0;entryDy=0;startArrow=none;startFill=0;" parent="1" source="cpNMHRpJZLc-2DXV02bt-7" target="cpNMHRpJZLc-2DXV02bt-12" edge="1">
          <mxGeometry relative="1" as="geometry" />
        </mxCell>
        <mxCell id="cpNMHRpJZLc-2DXV02bt-6" style="edgeStyle=orthogonalEdgeStyle;rounded=1;orthogonalLoop=1;jettySize=auto;html=1;startArrow=none;startFill=0;dashed=1;entryX=0.5;entryY=1;entryDx=0;entryDy=0;exitX=0.5;exitY=0;exitDx=0;exitDy=0;exitPerimeter=0;" parent="1" source="cpNMHRpJZLc-2DXV02bt-27" target="cpNMHRpJZLc-2DXV02bt-7" edge="1">
          <mxGeometry relative="1" as="geometry" />
        </mxCell>
        <mxCell id="cpNMHRpJZLc-2DXV02bt-7" value="Extract Messages&lt;br&gt;&lt;b&gt;criteria&lt;/b&gt;: type,status,timeToSend&lt;br&gt;&lt;b&gt;limit&lt;/b&gt;: 5000" style="rounded=1;whiteSpace=wrap;html=1;" parent="1" vertex="1">
          <mxGeometry x="340" y="41.5" width="220" height="45" as="geometry" />
        </mxCell>
        <mxCell id="cpNMHRpJZLc-2DXV02bt-8" style="edgeStyle=orthogonalEdgeStyle;rounded=1;orthogonalLoop=1;jettySize=auto;html=1;exitX=0.5;exitY=1;exitDx=0;exitDy=0;entryX=0.5;entryY=0;entryDx=0;entryDy=0;labelBackgroundColor=none;fontSize=18;fontColor=#FF2D0D;startArrow=none;startFill=0;" parent="1" source="cpNMHRpJZLc-2DXV02bt-9" target="cpNMHRpJZLc-2DXV02bt-19" edge="1">
          <mxGeometry relative="1" as="geometry" />
        </mxCell>
        <mxCell id="cpNMHRpJZLc-2DXV02bt-9" value="Extract distinct hashes" style="rounded=1;whiteSpace=wrap;html=1;" parent="1" vertex="1">
          <mxGeometry x="800" y="41.5" width="140" height="45" as="geometry" />
        </mxCell>
        <mxCell id="cpNMHRpJZLc-2DXV02bt-10" style="edgeStyle=orthogonalEdgeStyle;rounded=1;orthogonalLoop=1;jettySize=auto;html=1;exitX=0.5;exitY=1;exitDx=0;exitDy=0;startArrow=none;startFill=0;dashed=1;entryX=0.75;entryY=0;entryDx=0;entryDy=0;entryPerimeter=0;" parent="1" source="cpNMHRpJZLc-2DXV02bt-12" target="cpNMHRpJZLc-2DXV02bt-27" edge="1">
          <mxGeometry relative="1" as="geometry" />
        </mxCell>
        <mxCell id="cpNMHRpJZLc-2DXV02bt-11" style="edgeStyle=orthogonalEdgeStyle;rounded=1;orthogonalLoop=1;jettySize=auto;html=1;exitX=1;exitY=0.5;exitDx=0;exitDy=0;entryX=0;entryY=0.5;entryDx=0;entryDy=0;startArrow=none;startFill=0;" parent="1" source="cpNMHRpJZLc-2DXV02bt-12" target="cpNMHRpJZLc-2DXV02bt-9" edge="1">
          <mxGeometry relative="1" as="geometry" />
        </mxCell>
        <mxCell id="cpNMHRpJZLc-2DXV02bt-12" value="Update messages&lt;br&gt;&lt;b&gt;status&lt;/b&gt;: Processing" style="rounded=1;whiteSpace=wrap;html=1;" parent="1" vertex="1">
          <mxGeometry x="600" y="41.5" width="140" height="45" as="geometry" />
        </mxCell>
        <mxCell id="cpNMHRpJZLc-2DXV02bt-13" style="edgeStyle=orthogonalEdgeStyle;rounded=1;jumpStyle=arc;orthogonalLoop=1;jettySize=auto;html=1;exitX=1;exitY=0.5;exitDx=0;exitDy=0;exitPerimeter=0;entryX=0;entryY=0.5;entryDx=0;entryDy=0;startArrow=none;startFill=0;dashed=1;entryPerimeter=0;" parent="1" source="cpNMHRpJZLc-2DXV02bt-14" target="cpNMHRpJZLc-2DXV02bt-26" edge="1">
          <mxGeometry relative="1" as="geometry">
            <mxPoint x="950" y="250" as="targetPoint" />
          </mxGeometry>
        </mxCell>
        <mxCell id="cpNMHRpJZLc-2DXV02bt-14" value="send-message-trigger.fifo" style="sketch=0;points=[[0,0,0],[0.25,0,0],[0.5,0,0],[0.75,0,0],[1,0,0],[0,1,0],[0.25,1,0],[0.5,1,0],[0.75,1,0],[1,1,0],[0,0.25,0],[0,0.5,0],[0,0.75,0],[1,0.25,0],[1,0.5,0],[1,0.75,0]];outlineConnect=0;fontColor=#232F3E;gradientColor=#FF4F8B;gradientDirection=north;fillColor=#BC1356;strokeColor=#ffffff;dashed=0;verticalLabelPosition=bottom;verticalAlign=top;align=center;html=1;fontSize=13;fontStyle=0;aspect=fixed;shape=mxgraph.aws4.resourceIcon;resIcon=mxgraph.aws4.sqs;labelBorderColor=none;" parent="1" vertex="1">
          <mxGeometry x="810" y="226" width="48" height="48" as="geometry" />
        </mxCell>
        <mxCell id="cpNMHRpJZLc-2DXV02bt-15" style="edgeStyle=orthogonalEdgeStyle;rounded=1;jumpStyle=arc;orthogonalLoop=1;jettySize=auto;html=1;exitX=1;exitY=0.5;exitDx=0;exitDy=0;fontSize=12;startArrow=none;startFill=0;dashed=1;" parent="1" source="cpNMHRpJZLc-2DXV02bt-17" target="cpNMHRpJZLc-2DXV02bt-14" edge="1">
          <mxGeometry relative="1" as="geometry" />
        </mxCell>
        <mxCell id="cpNMHRpJZLc-2DXV02bt-16" style="edgeStyle=orthogonalEdgeStyle;rounded=1;orthogonalLoop=1;jettySize=auto;html=1;exitX=0;exitY=0.5;exitDx=0;exitDy=0;entryX=1;entryY=0.5;entryDx=0;entryDy=0;labelBackgroundColor=none;fontSize=12;fontColor=#FF2908;startArrow=none;startFill=0;" parent="1" source="cpNMHRpJZLc-2DXV02bt-17" target="cpNMHRpJZLc-2DXV02bt-25" edge="1">
          <mxGeometry relative="1" as="geometry" />
        </mxCell>
        <mxCell id="cpNMHRpJZLc-2DXV02bt-17" value="Put Hash into queue" style="rounded=1;whiteSpace=wrap;html=1;" parent="1" vertex="1">
          <mxGeometry x="610" y="227.5" width="120" height="45" as="geometry" />
        </mxCell>
        <mxCell id="cpNMHRpJZLc-2DXV02bt-18" style="edgeStyle=orthogonalEdgeStyle;rounded=1;orthogonalLoop=1;jettySize=auto;html=1;exitX=0;exitY=0.5;exitDx=0;exitDy=0;entryX=1;entryY=0.5;entryDx=0;entryDy=0;labelBackgroundColor=none;fontSize=12;fontColor=#FF2D0D;startArrow=none;startFill=0;" parent="1" source="cpNMHRpJZLc-2DXV02bt-19" target="cpNMHRpJZLc-2DXV02bt-22" edge="1">
          <mxGeometry relative="1" as="geometry" />
        </mxCell>
        <mxCell id="cpNMHRpJZLc-2DXV02bt-19" value="validate messages&lt;br&gt;&lt;b&gt;&lt;font color=&quot;#ff2908&quot;&gt;TODO&lt;/font&gt;&lt;/b&gt;" style="rounded=1;whiteSpace=wrap;html=1;labelBackgroundColor=none;fontSize=12;" parent="1" vertex="1">
          <mxGeometry x="810" y="144.5" width="120" height="40" as="geometry" />
        </mxCell>
        <mxCell id="cpNMHRpJZLc-2DXV02bt-20" style="edgeStyle=orthogonalEdgeStyle;rounded=1;orthogonalLoop=1;jettySize=auto;html=1;exitX=0;exitY=0.5;exitDx=0;exitDy=0;labelBackgroundColor=none;fontSize=12;fontColor=#FF2D0D;startArrow=none;startFill=0;dashed=1;entryX=1;entryY=0.5;entryDx=0;entryDy=0;entryPerimeter=0;" parent="1" source="cpNMHRpJZLc-2DXV02bt-22" target="cpNMHRpJZLc-2DXV02bt-27" edge="1">
          <mxGeometry relative="1" as="geometry">
            <mxPoint x="474" y="164.5999999999999" as="targetPoint" />
          </mxGeometry>
        </mxCell>
        <mxCell id="cpNMHRpJZLc-2DXV02bt-21" style="edgeStyle=orthogonalEdgeStyle;rounded=1;orthogonalLoop=1;jettySize=auto;html=1;exitX=0.5;exitY=1;exitDx=0;exitDy=0;labelBackgroundColor=none;fontSize=12;fontColor=#FF2D0D;startArrow=none;startFill=0;" parent="1" source="cpNMHRpJZLc-2DXV02bt-22" target="cpNMHRpJZLc-2DXV02bt-17" edge="1">
          <mxGeometry relative="1" as="geometry" />
        </mxCell>
        <mxCell id="cpNMHRpJZLc-2DXV02bt-22" value="Update messages&lt;br&gt;&lt;b&gt;status: &lt;/b&gt;Failed" style="rounded=1;whiteSpace=wrap;html=1;labelBackgroundColor=none;fontSize=12;" parent="1" vertex="1">
          <mxGeometry x="600" y="146.75" width="140" height="35.5" as="geometry" />
        </mxCell>
        <mxCell id="cpNMHRpJZLc-2DXV02bt-23" style="edgeStyle=orthogonalEdgeStyle;rounded=1;orthogonalLoop=1;jettySize=auto;html=1;exitX=0;exitY=0.5;exitDx=0;exitDy=0;entryX=0.5;entryY=1;entryDx=0;entryDy=0;entryPerimeter=0;labelBackgroundColor=none;fontSize=12;fontColor=#FF2908;startArrow=none;startFill=0;" parent="1" source="cpNMHRpJZLc-2DXV02bt-25" target="cpNMHRpJZLc-2DXV02bt-4" edge="1">
          <mxGeometry relative="1" as="geometry" />
        </mxCell>
        <mxCell id="cpNMHRpJZLc-2DXV02bt-24" style="edgeStyle=orthogonalEdgeStyle;rounded=1;orthogonalLoop=1;jettySize=auto;html=1;exitX=0.5;exitY=0;exitDx=0;exitDy=0;labelBackgroundColor=none;fontSize=12;fontColor=#FF2908;startArrow=none;startFill=0;dashed=1;entryX=0.5;entryY=1;entryDx=0;entryDy=0;entryPerimeter=0;" parent="1" source="cpNMHRpJZLc-2DXV02bt-25" target="cpNMHRpJZLc-2DXV02bt-27" edge="1">
          <mxGeometry relative="1" as="geometry" />
        </mxCell>
        <mxCell id="cpNMHRpJZLc-2DXV02bt-25" value="Update messages&lt;br&gt;&lt;b&gt;status&lt;/b&gt;: Queued" style="rounded=1;whiteSpace=wrap;html=1;" parent="1" vertex="1">
          <mxGeometry x="392.5" y="227.5" width="115" height="45" as="geometry" />
        </mxCell>
        <UserObject label="&lt;span style=&quot;color: rgb(66, 119, 187); background-color: rgb(255, 255, 255);&quot;&gt;SendMessage Worker&lt;/span&gt;" id="cpNMHRpJZLc-2DXV02bt-26">
          <mxCell style="outlineConnect=0;dashed=0;verticalLabelPosition=bottom;verticalAlign=top;align=center;html=1;shape=mxgraph.aws3.android;fillColor=#EE472A;gradientColor=none;aspect=fixed;" parent="1" vertex="1">
            <mxGeometry x="980" y="226.5" width="48" height="48" as="geometry" />
          </mxCell>
        </UserObject>
        <mxCell id="cpNMHRpJZLc-2DXV02bt-27" value="Database" style="sketch=0;points=[[0,0,0],[0.25,0,0],[0.5,0,0],[0.75,0,0],[1,0,0],[0,1,0],[0.25,1,0],[0.5,1,0],[0.75,1,0],[1,1,0],[0,0.25,0],[0,0.5,0],[0,0.75,0],[1,0.25,0],[1,0.5,0],[1,0.75,0]];outlineConnect=0;fontColor=#232F3E;gradientColor=#4D72F3;gradientDirection=north;fillColor=#3334B9;strokeColor=#ffffff;dashed=0;verticalLabelPosition=middle;verticalAlign=middle;align=right;html=1;fontSize=11;fontStyle=1;aspect=fixed;shape=mxgraph.aws4.resourceIcon;resIcon=mxgraph.aws4.rds;labelBackgroundColor=none;labelBorderColor=none;fontFamily=Helvetica;labelPosition=left;spacing=5;" parent="1" vertex="1">
          <mxGeometry x="426" y="140.5" width="48" height="48" as="geometry" />
        </mxCell>
        <mxCell id="5QCdZL_sBoKlKCl6mCu0-2" style="edgeStyle=orthogonalEdgeStyle;rounded=1;orthogonalLoop=1;jettySize=auto;html=1;exitX=1;exitY=0.5;exitDx=0;exitDy=0;exitPerimeter=0;entryX=0;entryY=0.5;entryDx=0;entryDy=0;entryPerimeter=0;" edge="1" parent="1" source="5QCdZL_sBoKlKCl6mCu0-1" target="cpNMHRpJZLc-2DXV02bt-4">
          <mxGeometry relative="1" as="geometry" />
        </mxCell>
        <mxCell id="5QCdZL_sBoKlKCl6mCu0-1" value="Database" style="sketch=0;points=[[0,0,0],[0.25,0,0],[0.5,0,0],[0.75,0,0],[1,0,0],[0,1,0],[0.25,1,0],[0.5,1,0],[0.75,1,0],[1,1,0],[0,0.25,0],[0,0.5,0],[0,0.75,0],[1,0.25,0],[1,0.5,0],[1,0.75,0]];outlineConnect=0;fontColor=#232F3E;gradientColor=#4D72F3;gradientDirection=north;fillColor=#3334B9;strokeColor=#ffffff;dashed=0;verticalLabelPosition=bottom;verticalAlign=top;align=center;fontSize=11;fontStyle=1;aspect=fixed;shape=mxgraph.aws4.resourceIcon;resIcon=mxgraph.aws4.rds;labelBackgroundColor=none;labelBorderColor=none;fontFamily=Helvetica;" vertex="1" parent="1">
          <mxGeometry x="60" y="40.5" width="48" height="48" as="geometry" />
        </mxCell>
      </root>
    </mxGraphModel>
  </diagram>
</mxfile>
